<svg width="1264" height="256" viewBox="0 0 1264 256" fill="none" xmlns="http://www.w3.org/2000/svg">
<path d="M1140.88 255.904C1111.92 255.904 1088.77 250.569 1071.41 239.899C1054.06 229.229 1045.38 214.456 1045.38 195.578C1045.38 176.583 1054.35 161.809 1072.29 151.256C1090.35 140.586 1116.2 135.251 1149.85 135.251C1164.39 135.251 1179.11 136.482 1194 138.945C1208.89 141.407 1221.32 144.749 1231.29 148.97V137.889C1231.29 122.764 1224.19 111.156 1210 103.065C1195.93 94.975 1177.47 90.9297 1154.6 90.9297C1144.52 90.9297 1135.26 91.8091 1126.81 93.5679C1118.49 95.2095 1110.46 97.4959 1102.72 100.427C1094.98 103.241 1088.24 106.407 1082.49 109.925C1076.86 113.442 1073.76 115.142 1073.17 115.025C1072.58 114.908 1072.12 114.615 1071.76 114.146L1057.52 96.9096C1057.17 96.4406 1057.05 95.913 1057.17 95.3267C1057.28 94.7405 1060.45 92.3954 1066.66 88.2915C1072.88 84.0704 1080.85 79.9666 1090.58 75.98C1100.31 71.8761 1110.46 68.8276 1121.01 66.8343C1131.68 64.7237 1144.05 63.6685 1158.12 63.6685C1191.77 63.6685 1217.8 70.2346 1236.21 83.3669C1254.74 96.382 1264 114.322 1264 137.186V249.925C1264 250.628 1263.76 251.273 1263.3 251.859C1262.83 252.328 1262.18 252.563 1261.36 252.563H1234.45C1233.75 252.563 1233.16 252.328 1232.69 251.859C1232.22 251.39 1231.99 250.804 1231.99 250.1V211.759L1240.08 219.849L1231.99 220.025C1224.37 231.047 1212.35 239.782 1195.93 246.231C1179.52 252.68 1161.17 255.904 1140.88 255.904ZM1145.63 229.171C1171.55 229.171 1192.3 223.484 1207.89 212.111C1223.61 200.62 1231.46 188.367 1231.46 175.352V173.769C1220.09 169.196 1207.42 165.678 1193.47 163.216C1179.52 160.637 1165.86 159.347 1152.49 159.347C1127.75 159.347 1109.23 162.395 1096.91 168.492C1084.72 174.59 1078.62 183.384 1078.62 194.874C1078.62 205.779 1084.54 214.221 1096.39 220.201C1108.35 226.181 1124.76 229.171 1145.63 229.171Z" fill="white"/>
<path d="M814.752 249.749V69.6483C814.752 68.9448 814.987 68.3586 815.456 67.8895C816.042 67.3033 816.687 67.0102 817.39 67.0102H844.3C845.003 67.0102 845.59 67.2447 846.059 67.7137C846.645 68.1827 846.938 68.7689 846.938 69.4725V108.342L842.013 101.482H846.938C854.911 90.2262 866.109 81.1391 880.531 74.2212C894.953 67.186 912.658 63.6685 933.647 63.6685C962.022 63.6685 984.124 70.7623 999.953 84.9498C1015.78 99.0202 1023.7 118.25 1023.7 142.638V249.925C1023.7 250.628 1023.46 251.273 1022.99 251.859C1022.52 252.328 1021.94 252.563 1021.23 252.563H993.797C993.094 252.563 992.449 252.328 991.863 251.859C991.394 251.273 991.159 250.628 991.159 249.925V149.498C991.159 132.027 985.707 118.25 974.802 108.166C963.898 97.9649 947.424 92.8644 925.38 92.8644C901.695 92.8644 882.759 98.4925 868.571 109.749C854.501 121.005 847.466 135.544 847.466 153.367V249.749C847.466 250.569 847.173 251.273 846.586 251.859C846.117 252.328 845.531 252.563 844.828 252.563H817.39C816.687 252.563 816.042 252.328 815.456 251.859C814.987 251.273 814.752 250.569 814.752 249.749Z" fill="white"/>
<path d="M666.148 255.905C628.862 255.905 598.669 246.759 575.57 228.468C552.471 210.059 540.922 187.195 540.922 159.875C540.922 132.32 552.471 109.397 575.57 91.1058C598.786 72.8144 629.038 63.6687 666.324 63.6687C703.493 63.6687 733.686 72.873 756.902 91.2817C780.118 109.69 791.726 132.555 791.726 159.875C791.726 187.312 780.059 210.176 756.726 228.468C733.51 246.759 703.317 255.905 666.148 255.905ZM666.148 226.533C693.351 226.533 715.512 220.318 732.63 207.89C749.749 195.461 758.309 179.456 758.309 159.875C758.309 140.293 749.749 124.288 732.63 111.86C715.512 99.3135 693.409 93.0405 666.324 93.0405C639.121 93.0405 616.961 99.2549 599.842 111.684C582.84 124.113 574.339 140.176 574.339 159.875C574.339 179.221 582.84 195.168 599.842 207.714C616.961 220.26 639.063 226.533 666.148 226.533ZM626.224 43.6184C620.478 43.6184 615.495 41.6838 611.274 37.8144C607.17 33.9451 605.118 29.1377 605.118 23.3923C605.118 17.7642 607.17 13.0741 611.274 9.32199C615.495 5.56989 620.478 3.69385 626.224 3.69385C632.203 3.69385 637.187 5.56989 641.173 9.32199C645.16 13.0741 647.153 17.7642 647.153 23.3923C647.153 29.1377 645.101 33.9451 640.997 37.8144C637.011 41.6838 632.086 43.6184 626.224 43.6184ZM708.007 43.6184C702.379 43.6184 697.455 41.6838 693.234 37.8144C689.012 33.9451 686.902 29.1377 686.902 23.3923C686.902 17.7642 689.012 13.0741 693.234 9.32199C697.455 5.56989 702.379 3.69385 708.007 3.69385C713.987 3.69385 719.029 5.56989 723.133 9.32199C727.237 13.0741 729.289 17.7642 729.289 23.3923C729.289 29.1377 727.237 33.9451 723.133 37.8144C719.029 41.6838 713.987 43.6184 708.007 43.6184Z" fill="white"/>
<path d="M394.428 255.905C357.142 255.905 326.949 246.759 303.851 228.468C280.752 210.059 269.202 187.195 269.202 159.875C269.202 132.32 280.752 109.397 303.851 91.1058C327.067 72.8144 357.318 63.6687 394.604 63.6687C431.773 63.6687 461.966 72.873 485.182 91.2817C508.398 109.69 520.006 132.555 520.006 159.875C520.006 187.312 508.339 210.176 485.006 228.468C461.79 246.759 431.598 255.905 394.428 255.905ZM394.428 226.533C421.631 226.533 443.792 220.318 460.911 207.89C478.03 195.461 486.589 179.456 486.589 159.875C486.589 140.293 478.03 124.288 460.911 111.86C443.792 99.3135 421.69 93.0405 394.604 93.0405C367.402 93.0405 345.241 99.2549 328.122 111.684C311.12 124.113 302.619 140.176 302.619 159.875C302.619 179.221 311.12 195.168 328.122 207.714C345.241 220.26 367.343 226.533 394.428 226.533ZM354.504 43.6184C348.758 43.6184 343.775 41.6838 339.554 37.8144C335.45 33.9451 333.398 29.1377 333.398 23.3923C333.398 17.7642 335.45 13.0741 339.554 9.32199C343.775 5.56989 348.758 3.69385 354.504 3.69385C360.484 3.69385 365.467 5.56989 369.454 9.32199C373.44 13.0741 375.433 17.7642 375.433 23.3923C375.433 29.1377 373.381 33.9451 369.278 37.8144C365.291 41.6838 360.366 43.6184 354.504 43.6184ZM436.288 43.6184C430.66 43.6184 425.735 41.6838 421.514 37.8144C417.293 33.9451 415.182 29.1377 415.182 23.3923C415.182 17.7642 417.293 13.0741 421.514 9.32199C425.735 5.56989 430.66 3.69385 436.288 3.69385C442.268 3.69385 447.309 5.56989 451.413 9.32199C455.517 13.0741 457.569 17.7642 457.569 23.3923C457.569 29.1377 455.517 33.9451 451.413 37.8144C447.309 41.6838 442.268 43.6184 436.288 43.6184Z" fill="white"/>
<path d="M128.919 255.904C106.407 255.904 86.2394 252.269 68.417 245C50.7118 237.73 37.9313 227.998 30.0753 215.804H22.3367L31.6583 207.713V250.276C31.6583 250.862 31.4238 251.39 30.9547 251.859C30.4857 252.328 29.8995 252.563 29.1959 252.563H2.63819C1.93467 252.563 1.28978 252.328 0.703516 251.859C0.234505 251.273 0 250.628 0 249.924V2.63819C0 1.93467 0.234505 1.3484 0.703516 0.879396C1.28978 0.293133 1.93467 0 2.63819 0H30.0753C30.7789 0 31.3651 0.293133 31.8341 0.879396C32.3032 1.3484 32.5377 1.93467 32.5377 2.63819V101.306L30.9547 102.538C38.6934 90.6951 51.2981 81.2562 68.7688 74.221C86.3567 67.1859 106.055 63.6683 127.864 63.6683C163.861 63.6683 193.057 72.6381 215.452 90.5778C237.847 108.517 249.045 131.558 249.045 159.698C249.045 187.956 237.789 211.055 215.276 228.995C192.881 246.934 164.095 255.904 128.919 255.904ZM122.94 227.236C150.377 227.236 172.596 221.256 189.598 209.296C206.717 197.337 215.276 180.804 215.276 159.698C215.276 139.062 206.834 122.705 189.95 110.628C173.065 98.4337 150.67 92.3366 122.764 92.3366C96.0301 92.3366 74.1624 98.6096 57.1607 111.156C40.1591 123.702 31.5996 139.883 31.4824 159.698C31.3651 179.162 39.7487 195.285 56.6331 208.065C73.5175 220.846 95.6197 227.236 122.94 227.236Z" fill="white"/>
</svg>
